<?xml version="1.0" encoding="iso-8859-1"?>
<!-- Uploaded to: SVG Repo, www.svgrepo.com, Generator: SVG Repo Mixer Tools -->
<svg fill="#000000" height="24" width="24" version="1.1" id="Layer_1" xmlns="http://www.w3.org/2000/svg" xmlns:xlink="http://www.w3.org/1999/xlink" 
	 viewBox="0 0 460 460" xml:space="preserve">
<g>
	<path d="M282.507,172.657c-31.62,0-57.344,25.724-57.344,57.343c0,31.62,25.725,57.344,57.344,57.344S339.851,261.62,339.851,230
		C339.851,198.381,314.127,172.657,282.507,172.657z"/>
	<path d="M424.222,215c-7.496-71.649-68.081-127.5-141.715-127.5H0v106.875L140.007,230c0,78.701,63.799,142.5,142.5,142.5
		c73.634,0,134.219-55.851,141.715-127.5H460v-30H424.222z M282.507,317.344c-48.162,0-87.344-39.182-87.344-87.344
		c0-48.161,39.183-87.343,87.344-87.343s87.344,39.182,87.344,87.343C369.851,278.162,330.669,317.344,282.507,317.344z"/>
</g>
</svg>